<svg width="59" height="47" viewBox="0 0 59 47" fill="none" xmlns="http://www.w3.org/2000/svg">
<path fill-rule="evenodd" clip-rule="evenodd" d="M6.625 2C4.07068 2 2 4.07068 2 6.625V40.375C2 42.9293 4.07068 45 6.625 45H51.625C54.1793 45 56.25 42.9293 56.25 40.375V6.625C56.25 4.07068 54.1793 2 51.625 2H6.625ZM0 6.625C0 2.96611 2.96611 0 6.625 0H51.625C55.2839 0 58.25 2.96611 58.25 6.625V40.375C58.25 44.0339 55.2839 47 51.625 47H6.625C2.96611 47 0 44.0339 0 40.375V6.625Z" fill="black"/>
<path fill-rule="evenodd" clip-rule="evenodd" d="M14.0625 23.5C14.0625 18.3338 18.065 14.0625 23.0978 14.0625H23.1022V14.0625C24.4016 14.0682 25.6839 14.3598 26.858 14.9164C27.6928 15.3122 28.4584 15.8351 29.1284 16.4645C30.7204 14.9742 32.8257 14.0625 35.1522 14.0625C40.185 14.0625 44.1875 18.3338 44.1875 23.5C44.1875 28.6662 40.185 32.9375 35.1522 32.9375C32.8238 32.9375 30.717 32.0244 29.1247 30.5319C27.5322 32.0224 25.4214 32.9375 23.0978 32.9375C18.065 32.9375 14.0625 28.6662 14.0625 23.5ZM30.125 28.703C31.4092 30.0866 33.197 30.9375 35.1522 30.9375C38.99 30.9375 42.1875 27.6544 42.1875 23.5C42.1875 19.3456 38.99 16.0625 35.1522 16.0625C33.197 16.0625 31.4092 16.9134 30.125 18.297V28.703ZM28.125 23.138V23.862C28.1196 23.7421 28.1169 23.6214 28.1169 23.5C28.1169 23.3786 28.1196 23.2579 28.125 23.138ZM27.8221 17.9822C26.7471 19.5397 26.1169 21.4494 26.1169 23.5C26.1169 25.5489 26.746 27.457 27.8193 29.0138C26.5662 30.2149 24.9089 30.9375 23.0978 30.9375C19.26 30.9375 16.0625 27.6544 16.0625 23.5C16.0625 19.3464 19.2588 16.0638 23.0956 16.0625C24.1009 16.0672 25.0929 16.2929 26.0012 16.7236C26.6739 17.0425 27.2885 17.468 27.8221 17.9822Z" fill="black"/>
</svg>
